<svg width="69" height="56" viewBox="0 0 69 56" fill="none" xmlns="http://www.w3.org/2000/svg">
<path d="M63.6654 53.7475C63.6654 52.4712 64.7016 51.5233 65.9152 51.5233C67.1287 51.5233 68.1556 52.4712 68.1556 53.7475C68.1556 55.0426 67.1194 55.9811 65.9152 55.9811C64.6923 55.9905 63.6654 55.0426 63.6654 53.7475ZM65.9152 55.6151C66.9233 55.6151 67.7075 54.8268 67.7075 53.7475C67.7075 52.687 66.914 51.8987 65.9152 51.8987C64.8976 51.8987 64.1042 52.6964 64.1042 53.7475C64.1135 54.8268 64.8976 55.6151 65.9152 55.6151ZM65.4484 55.0426H65.0657V52.4712H66.0365C66.6433 52.4712 66.942 52.6964 66.942 53.2032C66.942 53.663 66.6526 53.8601 66.2792 53.9071L67.0074 55.0426H66.5686L65.8965 53.9258H65.4484V55.0426V55.0426ZM65.9152 53.5974C66.2419 53.5974 66.5406 53.5692 66.5406 53.175C66.5406 52.8559 66.2512 52.7996 65.9805 52.7996H65.4484V53.5974H65.9152Z" fill="white"/>
<path d="M67.3523 24.8138L62.106 15.5978L60.3604 12.482L54.9927 3.20966C53.9378 1.29513 51.9028 0 49.5597 0H18.5672C16.2428 0 14.2171 1.29513 13.1529 3.20027L7.84124 12.4914L6.07691 15.6072L0.830597 24.8232C0.307833 25.7335 0.0091095 26.8034 0.0091095 27.9296C0.0091095 29.1027 0.335838 30.2102 0.895942 31.1487L6.11425 40.4022L7.82257 43.5086L13.1342 52.7997C14.1984 54.7049 16.2241 56 18.5486 56H49.541C51.8748 56 53.9098 54.7049 54.974 52.7903L60.3417 43.518L62.0687 40.4116L67.287 31.158C67.8471 30.2195 68.1738 29.1215 68.1738 27.939C68.1738 26.794 67.8751 25.7335 67.3523 24.8138Z" fill="white"/>
<path fill-rule="evenodd" clip-rule="evenodd" d="M60.361 12.482L54.9933 3.20966C53.9384 1.29513 51.9034 0 49.5603 0H18.5678C16.2434 0 14.2177 1.29513 13.1535 3.20027L7.84183 12.4914H60.361V12.482ZM0 27.9201C0 26.7939 0.29872 25.724 0.821484 24.8137L6.0678 15.5977L9.27906 15.5883V40.3927H6.10514L0.886833 31.1391C0.326728 30.2006 0 29.0932 0 27.9201ZM58.8948 15.5883L62.1061 15.5977L67.3524 24.8137C67.8752 25.724 68.1739 26.7845 68.1739 27.9201C68.1739 29.1026 67.8472 30.2006 67.2871 31.1391L62.0688 40.3927H58.8948V15.5883ZM7.81893 43.5179L7.81357 43.5085V43.5179H7.81893ZM7.81893 43.5179L13.1252 52.7996C14.1894 54.7048 16.2151 55.9999 18.5396 55.9999H49.532C51.8658 55.9999 53.9008 54.7048 54.965 52.7902L60.3327 43.5179H7.81893Z" fill="#FFC72C"/>
<path fill-rule="evenodd" clip-rule="evenodd" d="M17.6434 15.5883H12.2851V40.3927H15.8698V23.2276L17.6714 40.3927H23.0204V15.5883H19.4451V29.5625L17.6434 15.5883ZM26.7355 15.5883H33.3074L35.5291 40.3927H31.9258L31.2723 34.6303H28.6958L28.0797 40.3927H24.5511L26.7355 15.5883ZM30.0214 18.5821L29.0412 31.1204H30.9736L30.0214 18.5821ZM55.1518 15.5883H48.5799L46.3955 40.3927H49.9242L50.5403 34.6303H53.1168L53.7702 40.3927H57.3736L55.1518 15.5883ZM50.8763 31.1204L51.8565 18.5821L52.8087 31.1204H50.8763ZM37.1625 15.5883H43.3517C44.9573 15.5883 46.2549 16.9022 46.2549 18.507V28.2016C46.2549 29.8159 44.9573 31.1204 43.3517 31.1204H40.7379V40.3927H37.1625V15.5883ZM41.8114 27.9201C42.3902 27.9201 42.8663 27.4415 42.8663 26.8596V19.6426C42.8663 19.0607 42.3902 18.5821 41.8114 18.5821H40.7379V27.9201H41.8114Z" fill="#001489"/>
</svg>
