<svg width="281" height="56" viewBox="0 0 281 56" fill="none" xmlns="http://www.w3.org/2000/svg">
<path d="M63.6654 53.7475C63.6654 52.4712 64.7016 51.5233 65.9152 51.5233C67.1287 51.5233 68.1556 52.4712 68.1556 53.7475C68.1556 55.0426 67.1194 55.9811 65.9152 55.9811C64.6923 55.9905 63.6654 55.0426 63.6654 53.7475ZM65.9152 55.6151C66.9233 55.6151 67.7075 54.8268 67.7075 53.7475C67.7075 52.687 66.914 51.8987 65.9152 51.8987C64.8976 51.8987 64.1042 52.6964 64.1042 53.7475C64.1135 54.8268 64.8976 55.6151 65.9152 55.6151ZM65.4484 55.0426H65.0657V52.4712H66.0365C66.6433 52.4712 66.942 52.6964 66.942 53.2032C66.942 53.663 66.6526 53.8601 66.2792 53.9071L67.0074 55.0426H66.5686L65.8965 53.9258H65.4484V55.0426V55.0426ZM65.9152 53.5974C66.2419 53.5974 66.5406 53.5692 66.5406 53.175C66.5406 52.8559 66.2512 52.7996 65.9805 52.7996H65.4484V53.5974H65.9152Z" fill="white"/>
<path d="M67.3523 24.8138L62.106 15.5978L60.3604 12.482L54.9927 3.20966C53.9378 1.29513 51.9028 0 49.5597 0H18.5672C16.2428 0 14.2171 1.29513 13.1529 3.20027L7.84124 12.4914L6.07691 15.6072L0.830597 24.8232C0.307833 25.7335 0.0091095 26.8034 0.0091095 27.9296C0.0091095 29.1027 0.335838 30.2102 0.895942 31.1487L6.11425 40.4022L7.82257 43.5086L13.1342 52.7997C14.1984 54.7049 16.2241 56 18.5486 56H49.541C51.8748 56 53.9098 54.7049 54.974 52.7903L60.3417 43.518L62.0687 40.4116L67.287 31.158C67.8471 30.2195 68.1738 29.1215 68.1738 27.939C68.1738 26.794 67.8751 25.7335 67.3523 24.8138Z" fill="white"/>
<path fill-rule="evenodd" clip-rule="evenodd" d="M60.361 12.482L54.9933 3.20966C53.9384 1.29513 51.9034 0 49.5603 0H18.5678C16.2434 0 14.2177 1.29513 13.1535 3.20027L7.84183 12.4914H60.361V12.482ZM0 27.9201C0 26.7939 0.29872 25.724 0.821484 24.8137L6.0678 15.5977L9.27906 15.5883V40.3927H6.10514L0.886833 31.1391C0.326728 30.2006 0 29.0932 0 27.9201ZM58.8948 15.5883L62.1061 15.5977L67.3524 24.8137C67.8752 25.724 68.1739 26.7845 68.1739 27.9201C68.1739 29.1026 67.8472 30.2006 67.2871 31.1391L62.0688 40.3927H58.8948V15.5883ZM7.81893 43.5179L7.81357 43.5085V43.5179H7.81893ZM7.81893 43.5179L13.1252 52.7996C14.1894 54.7048 16.2151 55.9999 18.5396 55.9999H49.532C51.8658 55.9999 53.9008 54.7048 54.965 52.7902L60.3327 43.5179H7.81893Z" fill="#FFC72C"/>
<path fill-rule="evenodd" clip-rule="evenodd" d="M17.6434 15.5883H12.2851V40.3927H15.8698V23.2276L17.6714 40.3927H23.0204V15.5883H19.4451V29.5625L17.6434 15.5883ZM26.7355 15.5883H33.3074L35.5291 40.3927H31.9258L31.2723 34.6303H28.6958L28.0797 40.3927H24.5511L26.7355 15.5883ZM30.0214 18.5821L29.0412 31.1204H30.9736L30.0214 18.5821ZM55.1518 15.5883H48.5799L46.3955 40.3927H49.9242L50.5403 34.6303H53.1168L53.7702 40.3927H57.3736L55.1518 15.5883ZM50.8763 31.1204L51.8565 18.5821L52.8087 31.1204H50.8763ZM37.1625 15.5883H43.3517C44.9573 15.5883 46.2549 16.9022 46.2549 18.507V28.2016C46.2549 29.8159 44.9573 31.1204 43.3517 31.1204H40.7379V40.3927H37.1625V15.5883ZM41.8114 27.9201C42.3902 27.9201 42.8663 27.4415 42.8663 26.8596V19.6426C42.8663 19.0607 42.3902 18.5821 41.8114 18.5821H40.7379V27.9201H41.8114Z" fill="#001489"/>
<path d="M79.598 36V20.292H76.518V36H79.598ZM89.065 23.878C87.305 23.878 85.941 24.494 85.171 26.144V24.164H82.311V36H85.171V30.104C85.171 27.948 85.787 26.518 87.767 26.518C89.263 26.518 90.121 27.376 90.121 30.104V36H92.981V30.104C92.981 26.122 92.035 23.878 89.065 23.878ZM100.038 32.612L97.1341 24.164H94.2741L98.3441 36H101.754L105.78 24.164H102.92L100.038 32.612ZM118.083 29.972C118.039 26.298 115.993 23.856 112.407 23.856C108.997 23.856 106.731 26.1 106.731 30.082C106.731 33.822 108.887 36.308 112.715 36.308C115.113 36.308 116.939 35.362 117.907 33.58L115.465 32.172C114.849 33.118 113.903 33.668 112.715 33.668C111.197 33.668 110.075 32.81 109.723 31.248H118.083V29.972ZM112.407 26.496C113.815 26.496 114.827 27.398 115.135 29.004H109.679C109.987 27.464 110.933 26.496 112.407 26.496ZM126.856 23.878C125.096 23.878 123.732 24.494 122.962 26.144V24.164H120.102V36H122.962V30.104C122.962 27.948 123.578 26.518 125.558 26.518C127.054 26.518 127.912 27.376 127.912 30.104V36H130.772V30.104C130.772 26.122 129.826 23.878 126.856 23.878ZM139.391 24.142H137.015V20.776H134.155V24.142H132.087V26.386H134.155V32.194C134.155 34.548 134.969 36.132 138.225 36.132H139.391V33.492H138.225C137.499 33.492 137.015 33.228 137.015 32.194V26.386H139.391V24.142ZM146.614 23.856C143.094 23.856 140.74 26.1 140.74 30.082C140.74 33.822 142.852 36.308 146.614 36.308C150.112 36.308 152.444 34.064 152.444 30.082C152.444 26.342 150.354 23.856 146.614 23.856ZM146.614 33.668C144.81 33.668 143.6 32.37 143.6 30.082C143.6 27.926 144.678 26.496 146.614 26.496C148.396 26.496 149.584 27.794 149.584 30.082C149.584 32.238 148.506 33.668 146.614 33.668ZM161.583 23.878C159.625 23.878 158.107 24.428 157.337 26.232V24.164H154.477V36H157.337V29.664C157.337 27.838 158.151 26.628 161.385 26.628L161.781 26.65V23.9L161.583 23.878ZM168.724 32.832L165.798 24.164H162.652L167.074 36C166.656 37.1 166.414 37.386 165.138 37.386H163.928V39.85H165.138C168.13 39.85 169.164 39.058 170.286 36L174.664 24.164H171.474L168.724 32.832ZM187.326 36.308C190.692 36.308 193.2 34.768 193.2 31.82C193.2 29.268 191.638 27.926 187.7 26.606C185.742 25.946 184.224 25.594 184.224 24.318C184.224 23.35 185.148 22.8 186.446 22.8C187.942 22.8 189.328 23.548 190.252 24.868L192.87 23.35C191.572 21.194 189.46 19.984 186.622 19.984C183.344 19.984 180.792 21.568 180.792 24.45C180.792 26.914 182.684 28.278 186.27 29.378C188.536 30.06 189.724 30.478 189.724 31.864C189.724 32.942 188.668 33.426 187.414 33.426C185.742 33.426 184.092 32.546 182.948 30.962L180.286 32.502C181.826 35.01 184.224 36.308 187.326 36.308ZM197.771 22.668V20.292H194.911V22.668H197.771ZM197.771 36V24.164H194.911V36H197.771ZM213.639 23.878C211.879 23.878 210.537 24.758 209.921 26.562C209.371 24.89 208.227 23.878 206.423 23.878C204.883 23.878 203.673 24.626 203.013 26.144V24.164H200.153V36H203.013V29.224C203.013 27.596 203.651 26.518 205.037 26.518C206.467 26.518 207.435 27.376 207.435 29.224V36H210.273V29.224C210.273 27.596 210.911 26.518 212.275 26.518C213.705 26.518 214.651 27.376 214.651 29.224V36H217.511V29.224C217.511 26.012 216.279 23.878 213.639 23.878ZM227.707 30.082C227.707 32.238 227.091 33.668 225.111 33.668C223.615 33.668 222.757 32.81 222.757 30.082V24.164H219.897V30.082C219.897 34.064 220.843 36.308 223.813 36.308C225.573 36.308 226.937 35.692 227.707 34.042V36H230.567V24.164H227.707V30.082ZM235.798 36V20.292H232.938V36H235.798ZM241.788 36.33C243.614 36.33 245.044 35.67 245.572 34.592L245.858 36H248.366V28.608C248.366 25.748 246.21 23.856 242.976 23.856C240.886 23.856 239.038 24.89 237.96 26.54L240.314 27.882C240.93 27.046 241.854 26.584 242.932 26.584C244.472 26.584 245.572 27.486 245.572 28.74C240.292 28.696 237.74 30.038 237.74 32.832C237.74 35.01 239.28 36.33 241.788 36.33ZM242.448 33.888C241.106 33.888 240.556 33.536 240.556 32.7C240.556 31.446 242.008 30.94 245.572 30.984C245.572 32.81 244.384 33.888 242.448 33.888ZM256.997 24.142H254.621V20.776H251.761V24.142H249.693V26.386H251.761V32.194C251.761 34.548 252.575 36.132 255.831 36.132H256.997V33.492H255.831C255.105 33.492 254.621 33.228 254.621 32.194V26.386H256.997V24.142ZM264.22 23.856C260.7 23.856 258.346 26.1 258.346 30.082C258.346 33.822 260.458 36.308 264.22 36.308C267.718 36.308 270.05 34.064 270.05 30.082C270.05 26.342 267.96 23.856 264.22 23.856ZM264.22 33.668C262.416 33.668 261.206 32.37 261.206 30.082C261.206 27.926 262.284 26.496 264.22 26.496C266.002 26.496 267.19 27.794 267.19 30.082C267.19 32.238 266.112 33.668 264.22 33.668ZM279.189 23.878C277.231 23.878 275.713 24.428 274.943 26.232V24.164H272.083V36H274.943V29.664C274.943 27.838 275.757 26.628 278.991 26.628L279.387 26.65V23.9L279.189 23.878Z" fill="white"/>
</svg>
